<?xml version="1.0" standalone="no"?><!DOCTYPE svg PUBLIC "-//W3C//DTD SVG 1.1//EN" "http://www.w3.org/Graphics/SVG/1.1/DTD/svg11.dtd"><svg t="1604756442969" class="icon" viewBox="0 0 1024 1024" version="1.1" xmlns="http://www.w3.org/2000/svg" p-id="5329" xmlns:xlink="http://www.w3.org/1999/xlink" width="200" height="200"><defs><style type="text/css"></style></defs><path d="M830.032092 928.840098H192.838562c-53.455005 0-96.951701-43.483386-96.951701-96.938391V194.681556c0-53.440671 43.496696-96.924057 96.951701-96.924057h637.19353c53.455005 0 96.951701 43.483386 96.951702 96.924057v637.220151c0 53.455005-43.49772 96.938391-96.951702 96.938391zM192.838562 125.46486c-38.17966 0-69.243317 31.050346-69.243317 69.216696v637.220151c0 38.17966 31.063657 69.230006 69.243317 69.230006h637.19353c38.17966 0 69.243317-31.050346 69.243317-69.230006V194.681556c0-38.166349-31.063657-69.216696-69.243317-69.216696H192.838562z" p-id="5330"></path><path d="M909.705729 319.990785H113.150591c-7.657638 0-13.854192-6.196554-13.854192-13.854192 0-7.657638 6.196554-13.854192 13.854192-13.854193h796.556162c7.657638 0 13.854192 6.196554 13.854192 13.854193-0.001024 7.657638-6.197578 13.854192-13.855216 13.854192zM357.74758 236.352665c-3.598957 0-7.211224-1.663814-9.700289-4.153903-2.489065-2.773705-4.153903-6.385973-4.153903-9.70029 0-3.612267 1.663814-7.211224 4.153903-9.98493 5.547411-5.262771 14.409138-4.979154 19.401603 0 2.760395 2.773705 4.153903 6.101333 4.153902 9.98493 0 3.598957-1.393508 7.197914-3.882573 9.70029-2.774729 2.489065-6.10338 4.153903-9.972643 4.153903zM663.917961 236.352665c-3.882573 0-7.197914-1.663814-9.971619-4.153903-2.489065-2.5034-3.882573-6.101333-3.882573-9.70029 0-3.612267 1.393508-7.211224 3.882573-9.700289 5.262771-5.547411 14.679444-5.262771 19.671909-0.283617 2.489065 2.773705 3.882573 6.372662 3.882573 9.98493 0 3.598957-1.393508 7.197914-3.882573 9.70029-2.489065 2.488041-6.101333 4.152879-9.70029 4.152879zM663.796119 784.65759c-7.657638 0-13.854192-6.196554-13.854192-13.854192V481.951013l-52.980947 19.563377c-7.156958 2.651863-15.152479-1.027981-17.804342-8.199273-2.638552-7.184603 1.027981-15.152479 8.199274-17.804342l71.638185-26.45003a13.807094 13.807094 0 0 1 12.717679 1.637193 13.838834 13.838834 0 0 1 5.939559 11.365127v308.740333c-0.001024 7.657638-6.197578 13.854192-13.855216 13.854192zM419.563633 788.567808c-47.866639 0-97.330539-23.622058-115.973443-58.054298-3.653223-6.737165-1.149823-15.139168 5.574032-18.77908 6.737165-3.653223 15.152479-1.136513 18.77908 5.574031 16.153839 29.791991 69.338538 49.653319 111.468348 41.751996 21.281456-4.004416 47.637289-16.654519 52.331803-54.185035 2.74606-21.944934-1.663814-38.612763-13.475355-50.992561-23.243221-24.366423-71.435455-26.260611-88.009087-25.043211-5.76345 0.365527-10.796871-2.475755-13.353512-7.387333a13.853168 13.853168 0 0 1 1.52866-15.180123l97.885485-120.086391H326.495529c-7.657638 0-13.854192-6.196554-13.854193-13.854192s6.196554-13.854192 13.854193-13.854192h178.993584c5.343658 0 10.21428 3.084966 12.514951 7.914633s1.596237 10.553186-1.772346 14.692755l-98.386165 120.695602c24.393044 2.273025 58.365559 9.808821 80.473291 32.971155 17.669189 18.507751 24.704305 43.267346 20.91593 73.558993-5.195194 41.602509-32.416209 70.027613-74.695506 77.983202-8.158318 1.529685-16.5337 2.274049-24.975635 2.274049z" p-id="5331"></path></svg>