<?xml version="1.0" standalone="no"?><!DOCTYPE svg PUBLIC "-//W3C//DTD SVG 1.1//EN" "http://www.w3.org/Graphics/SVG/1.1/DTD/svg11.dtd"><svg t="1604756640950" class="icon" viewBox="0 0 1024 1024" version="1.1" xmlns="http://www.w3.org/2000/svg" p-id="7505" xmlns:xlink="http://www.w3.org/1999/xlink" width="200" height="200"><defs><style type="text/css"></style></defs><path d="M880.258737 205.694779 740.067834 205.694779c-7.133468-5.916756-24.3772-27.299763-33.013905-38.005592-32.045857-39.802518-62.315254-77.404927-93.980441-77.404927L403.675364 90.284259c-29.017894 0-56.267515 28.993335-97.710392 76.753081-8.876158 10.252505-29.024034 33.506115-35.893488 38.655392L143.74024 205.692732c-44.855604 0-81.349773 36.580127-81.349773 81.546248l0 564.878324c0 44.991704 36.494169 81.59639 81.349773 81.59639L880.258737 933.713694c44.855604 0 81.350796-36.604686 81.350796-81.59639L961.609533 287.241027C961.609533 242.274906 925.11434 205.694779 880.258737 205.694779zM936.465876 852.119351c0 31.129998-25.213241 56.452733-56.208163 56.452733L143.74024 908.572084c-30.993898 0-56.206116-25.322735-56.206116-56.452733L87.534124 287.241027c0-31.099299 25.213241-56.402591 56.206116-56.402591l129.425721 0c1.411139 0 2.811022-0.23843 4.149507-0.704035 8.91402-3.112897 21.902846-16.901948 47.64923-46.623877 33.467229-38.568411 60.516282-68.078515 78.710666-68.078515L613.073488 115.432009c19.627013 0 49.993624 37.722136 74.41585 68.054979 24.24724 30.061666 35.781948 43.169195 44.431955 46.512337 1.449002 0.552585 2.983961 0.841158 4.5312 0.841158L880.258737 230.840482c30.994921 0 56.208163 25.305339 56.208163 56.402591L936.466899 852.119351 936.465876 852.119351z" p-id="7506"></path><path d="M511.962649 318.268694c-122.775254 0-222.659149 100.172467-222.659149 223.303832 0 123.101689 99.883895 223.255737 222.659149 223.255737 61.817927 0 119.258151-24.794709 161.739684-69.810972 7.148817-7.568373 6.79987-19.508309-0.775666-26.65508-7.567349-7.144724-19.512403-6.807033-26.654057 0.774643-35.283598 37.383422-82.983993 57.972343-134.309962 57.972343-101.976556 0-184.941106-83.229586-184.941106-185.537693 0-102.33369 82.965573-185.586812 184.941106-185.586812 102.014418 0 185.004551 83.253122 185.004551 185.586812 0 10.41828 8.44023 18.85851 18.859533 18.85851 10.417257 0 18.859533-8.44023 18.859533-18.85851C734.683197 418.439114 634.768603 318.268694 511.962649 318.268694z" p-id="7507"></path></svg>