<?xml version="1.0" standalone="no"?><!DOCTYPE svg PUBLIC "-//W3C//DTD SVG 1.1//EN" "http://www.w3.org/Graphics/SVG/1.1/DTD/svg11.dtd"><svg t="1600785657933" class="icon" viewBox="0 0 1024 1024" version="1.1" xmlns="http://www.w3.org/2000/svg" p-id="3867" xmlns:xlink="http://www.w3.org/1999/xlink" width="200" height="200"><defs><style type="text/css"></style></defs><path d="M547.2 512l416-416c9.6-9.6 9.6-25.6 0-35.2s-25.6-9.6-35.2 0l-416 416-416-416c-9.6-9.6-25.6-9.6-35.2 0s-9.6 25.6 0 35.2l416 416-416 416c-9.6 9.6-9.6 25.6 0 35.2s25.6 9.6 35.2 0l416-416 416 416c9.6 9.6 25.6 9.6 35.2 0s9.6-25.6 0-35.2L547.2 512z" p-id="3868"></path></svg>
