<?xml version="1.0" standalone="no"?><!DOCTYPE svg PUBLIC "-//W3C//DTD SVG 1.1//EN" "http://www.w3.org/Graphics/SVG/1.1/DTD/svg11.dtd"><svg t="1600785716582" class="icon" viewBox="0 0 1024 1024" version="1.1" xmlns="http://www.w3.org/2000/svg" p-id="4647" xmlns:xlink="http://www.w3.org/1999/xlink" width="200" height="200"><defs><style type="text/css"></style></defs><path d="M904 176v672H120V176h784m0-56H120c-30.9 0-56 25.1-56 56v672c0 30.9 25.1 56 56 56h784c30.9 0 56-25.1 56-56V176c0-30.9-25.1-56-56-56z" p-id="4648"></path><path d="M204 708c-5.4 0-10.8-1.5-15.5-4.7-12.9-8.6-16.4-26-7.8-38.8l180.1-270.2c15.1-22.6 40.3-36.6 67.5-37.4 27.2-2.5 53.2 11.8 69.6 33.6l93.7 125c14-21.1 36.6-34.7 62.3-37.1 29.4-2.5 57.2 9.8 74.8 33.2l113.7 151.6c9.2 12.4 6.7 29.9-5.6 39.2-12.3 9.3-29.9 6.7-39.2-5.6L683.9 545.2c-8.4-11.3-20.2-11.4-24.9-11-4.6 0.4-16.2 2.8-22.5 15.4l-15.5 31c-4.3 8.7-12.9 14.5-22.5 15.4-9.7 0.5-19.1-3.3-24.9-11.1L453 424.1c-5.5-7.4-14.4-11.4-23.2-11.2-9.2 0.3-17.4 4.8-22.5 12.5l-180 270.1C221.9 703.6 213 708 204 708zM792 288c-30.9 0-56 25.1-56 56s25.1 56 56 56 56-25.1 56-56-25.1-56-56-56z" p-id="4649"></path></svg>
