<?xml version="1.0" standalone="no"?><!DOCTYPE svg PUBLIC "-//W3C//DTD SVG 1.1//EN" "http://www.w3.org/Graphics/SVG/1.1/DTD/svg11.dtd"><svg t="1600785683734" class="icon" viewBox="0 0 1025 1024" version="1.1" xmlns="http://www.w3.org/2000/svg" p-id="4256" xmlns:xlink="http://www.w3.org/1999/xlink" width="200.1953125" height="200"><defs><style type="text/css"></style></defs><path d="M104.347445 556.993862l369.076154 368.58699c45.309055 45.19751 118.763451 45.19751 164.042829 0l287.069578-286.68889c45.304962-45.226164 45.304962-118.572084 0-163.825878L555.458829 106.537425c-28.201625-29.569851-33.611081-42.522459-63.179909-42.522459L117.354291 64.014967c-29.596458 0-53.560369 23.964934-53.560369 53.507154l0 374.379181C63.793922 521.469106 80.572855 533.275556 104.347445 556.993862zM883.544487 597.931143 597.405139 884.916806c-22.626385 22.625362-60.308374 22.298912-82.961366-0.328497l-45.418554-38.939692 373.145015-377.029671 44.13629 47.111184C908.957469 538.357539 906.20055 575.303735 883.544487 597.931143zM113.336598 144.248068c0-14.756783 15.988903-30.658701 30.799924-30.658701l321.362214 0c14.78339 0 35.770361 20.738295 48.941967 33.884317l291.606112 285.784244L432.896683 806.378382 143.995299 515.73013c-14.428286-14.427263-30.660748-35.796968-30.660748-50.553751L113.336598 144.248068 113.336598 144.248068zM411.910736 413.663744c45.307009-45.22514 45.307009-118.57106 0-163.823831-45.279378-45.227187-118.733774-45.227187-164.042829 0-45.279378 45.252771-45.279378 118.598691 0 163.823831C293.176963 458.890931 366.629312 458.890931 411.910736 413.663744zM286.617255 286.730848c24.292408-24.54006 63.671119-24.54006 87.937943 0 24.292408 24.539036 24.292408 64.299459 0 88.838496-24.265801 24.513453-63.643489 24.513453-87.937943 0C262.322801 351.030307 262.322801 311.270907 286.617255 286.730848z" p-id="4257"></path></svg>
