<?xml version="1.0" standalone="no"?><!DOCTYPE svg PUBLIC "-//W3C//DTD SVG 1.1//EN" "http://www.w3.org/Graphics/SVG/1.1/DTD/svg11.dtd"><svg t="1604756418898" class="icon" viewBox="0 0 1024 1024" version="1.1" xmlns="http://www.w3.org/2000/svg" p-id="2539" xmlns:xlink="http://www.w3.org/1999/xlink" width="200" height="200"><defs><style type="text/css"></style></defs><path d="M422 524.6c-70.2-36-118.8-108-118.8-192.6 0-118.8 97.2-216 216-216s216 97.2 216 216c0 84.6-48.6 156.6-118.8 192.6 162 43.2 280.8 190.8 280.8 365.4 0 10.8-7.2 18-18 18s-18-7.2-18-18c0-189-153-342-342-342s-342 153-342 342c0 10.8-7.2 18-18 18s-18-7.2-18-18c0-174.6 118.8-322.2 280.8-365.4z m97.2-12.6c99 0 180-81 180-180s-81-180-180-180-180 81-180 180 81 180 180 180z" p-id="2540"></path></svg>